<svg xmlns="http://www.w3.org/2000/svg" xmlns:xlink="http://www.w3.org/1999/xlink" contentStyleType="text/css" data-diagram-type="DESCRIPTION" height="944px" preserveAspectRatio="none" style="width:618px;height:944px;background:#FFFFFF;" version="1.1" viewBox="0 0 618 944" width="618px" zoomAndPan="magnify"><?plantuml 1.2026.3beta6?><defs/><g><!--cluster Git Guild ???????? MVP?--><g class="cluster" data-qualified-name="Git Guild ........ MVP." data-source-line="17" id="ent0007"><rect fill="none" height="780" rx="2.5" ry="2.5" style="stroke:#181818;stroke-width:1;" width="463" x="141.65" y="111.3"/><text fill="#000000" font-family="sans-serif" font-size="14" font-weight="700" lengthAdjust="spacing" textLength="239.7084" x="253.2958" y="126.2951">Git Guild &#24179;&#21488;&#65288;&#35838;&#31243;&#23637;&#31034;&#29256; MVP&#65289;</text></g><!--entity UC01--><g class="entity" data-qualified-name="Git Guild ........ MVP..UC01" data-source-line="18" id="ent0008"><ellipse cx="249.143" cy="717.3046" fill="#F8FAFC" rx="74.173" ry="17.2346" style="stroke:#334155;stroke-width:0.5;"/><text fill="#000000" font-family="sans-serif" font-size="14" lengthAdjust="spacing" textLength="116.7163" x="190.7849" y="721.953">&#23548;&#20837;/&#25509;&#20837;&#39033;&#30446;&#20179;&#24211;</text></g><!--entity UC02--><g class="entity" data-qualified-name="Git Guild ........ MVP..UC02" data-source-line="19" id="ent0009"><ellipse cx="249.1392" cy="648.3018" fill="#F8FAFC" rx="71.7092" ry="16.7418" style="stroke:#334155;stroke-width:0.5;"/><text fill="#000000" font-family="sans-serif" font-size="14" lengthAdjust="spacing" textLength="110.653" x="193.8126" y="652.9503">&#27983;&#35272;&#20179;&#24211;&#19982; Issue</text></g><!--entity UC03--><g class="entity" data-qualified-name="Git Guild ........ MVP..UC03" data-source-line="20" id="ent0010"><ellipse cx="249.1388" cy="854.2978" fill="#F8FAFC" rx="91.4888" ry="20.6978" style="stroke:#334155;stroke-width:0.5;"/><text fill="#000000" font-family="sans-serif" font-size="14" lengthAdjust="spacing" textLength="157.103" x="170.5873" y="858.9462">&#22522;&#20110; Issue &#21457;&#24067;&#24748;&#36175;&#20219;&#21153;</text></g><!--entity UC04--><g class="entity" data-qualified-name="Git Guild ........ MVP..UC04" data-source-line="21" id="ent0011"><ellipse cx="249.1352" cy="436.295" fill="#F8FAFC" rx="66.7252" ry="15.745" style="stroke:#334155;stroke-width:0.5;"/><text fill="#000000" font-family="sans-serif" font-size="14" lengthAdjust="spacing" textLength="97.9996" x="200.1354" y="440.9435">&#27983;&#35272;&#19982;&#31579;&#36873;&#20219;&#21153;</text></g><!--entity UC05--><g class="entity" data-qualified-name="Git Guild ........ MVP..UC05" data-source-line="22" id="ent0012"><ellipse cx="249.1441" cy="237.3028" fill="#F8FAFC" rx="90.1141" ry="20.4228" style="stroke:#334155;stroke-width:0.5;"/><text fill="#000000" font-family="sans-serif" font-size="14" lengthAdjust="spacing" textLength="153.9993" x="172.1445" y="241.9513">&#26597;&#30475;&#20219;&#21153;&#35814;&#24773;&#19982;&#23436;&#25104;&#26631;&#20934;</text></g><!--entity UC06--><g class="entity" data-qualified-name="Git Guild ........ MVP..UC06" data-source-line="23" id="ent0013"><ellipse cx="249.1442" cy="307.3028" fill="#F8FAFC" rx="61.5142" ry="14.7028" style="stroke:#334155;stroke-width:0.5;"/><text fill="#000000" font-family="sans-serif" font-size="14" lengthAdjust="spacing" textLength="83.9996" x="207.1444" y="311.9513">&#25509;&#21462;&#24748;&#36175;&#20219;&#21153;</text></g><!--entity UC07--><g class="entity" data-qualified-name="Git Guild ........ MVP..UC07" data-source-line="24" id="ent0014"><ellipse cx="249.1382" cy="507.2956" fill="#F8FAFC" rx="87.5782" ry="19.9156" style="stroke:#334155;stroke-width:0.5;"/><text fill="#000000" font-family="sans-serif" font-size="14" lengthAdjust="spacing" textLength="148.2368" x="175.0197" y="511.9441">&#25552;&#20132;&#20219;&#21153;&#25104;&#26524; / &#25552;&#20132; PR</text></g><!--entity UC08--><g class="entity" data-qualified-name="Git Guild ........ MVP..UC08" data-source-line="25" id="ent0015"><ellipse cx="249.1442" cy="784.3028" fill="#F8FAFC" rx="61.5142" ry="14.7028" style="stroke:#334155;stroke-width:0.5;"/><text fill="#000000" font-family="sans-serif" font-size="14" lengthAdjust="spacing" textLength="83.9996" x="207.1444" y="788.9513">&#23457;&#26680;&#20219;&#21153;&#25104;&#26524;</text></g><!--entity UC09--><g class="entity" data-qualified-name="Git Guild ........ MVP..UC09" data-source-line="26" id="ent0016"><ellipse cx="527.1442" cy="686.3028" fill="#F8FAFC" rx="61.5142" ry="14.7028" style="stroke:#334155;stroke-width:0.5;"/><text fill="#000000" font-family="sans-serif" font-size="14" lengthAdjust="spacing" textLength="83.9996" x="485.1444" y="690.9513">&#36319;&#36394;&#20219;&#21153;&#29366;&#24577;</text></g><!--entity UC10--><g class="entity" data-qualified-name="Git Guild ........ MVP..UC10" data-source-line="27" id="ent0017"><ellipse cx="249.1371" cy="579.2954" fill="#F8FAFC" rx="71.8771" ry="16.7754" style="stroke:#334155;stroke-width:0.5;"/><text fill="#000000" font-family="sans-serif" font-size="14" lengthAdjust="spacing" textLength="111.0699" x="193.6022" y="583.9439">&#20851;&#32852; PR &#23436;&#25104;&#20219;&#21153;</text></g><!--entity UC11--><g class="entity" data-qualified-name="Git Guild ........ MVP..UC11" data-source-line="28" id="ent0018"><ellipse cx="249.1442" cy="371.3028" fill="#F8FAFC" rx="61.5142" ry="14.7028" style="stroke:#334155;stroke-width:0.5;"/><text fill="#000000" font-family="sans-serif" font-size="14" lengthAdjust="spacing" textLength="83.9996" x="207.1444" y="375.9513">&#26597;&#30475;&#25104;&#38271;&#32467;&#26524;</text></g><!--entity UC12--><g class="entity" data-qualified-name="Git Guild ........ MVP..UC12" data-source-line="29" id="ent0019"><ellipse cx="249.1359" cy="164.2952" fill="#F8FAFC" rx="78.0259" ry="18.0052" style="stroke:#334155;stroke-width:0.5;"/><text fill="#000000" font-family="sans-serif" font-size="14" lengthAdjust="spacing" textLength="125.9995" x="186.1362" y="168.9436">&#22788;&#29702;&#24322;&#24120;&#25110;&#36829;&#35268;&#20219;&#21153;</text></g><!--entity Adventurer--><g class="entity" data-qualified-name="Adventurer" data-source-line="11" id="ent0002"><ellipse cx="50.3213" cy="341" fill="#F1F1F1" rx="16" ry="16" style="stroke:#181818;stroke-width:0.5;"/><path d="M50.3213,361 C54.3213,361 57.3213,361 61.3213,357 C69.3213,357 77.3213,365 77.3213,373 L77.3213,377 C77.3213,381 73.3213,385 69.3213,385 L31.3213,385 C27.3213,385 23.3213,381 23.3213,377 L23.3213,373 C23.3213,365 31.3213,357 39.3213,357 C43.3213,361 46.3213,361 50.3213,361" fill="#F1F1F1" style="stroke:#181818;stroke-width:0.5;"/><text fill="#000000" font-family="sans-serif" font-size="14" lengthAdjust="spacing" textLength="41.9998" x="10.96" y="398.4951">&#20882;&#38505;&#23478;</text><text fill="#000000" font-family="sans-serif" font-size="14" lengthAdjust="spacing" textLength="78.7227" x="10.96" y="414.792">Adventurer</text></g><!--entity GuildMaster--><g class="entity" data-qualified-name="GuildMaster" data-source-line="12" id="ent0003"><ellipse cx="50.3242" cy="783" fill="#F1F1F1" rx="16" ry="16" style="stroke:#181818;stroke-width:0.5;"/><path d="M50.3242,803 C54.3242,803 57.3242,803 61.3242,799 C69.3242,799 77.3242,807 77.3242,815 L77.3242,819 C77.3242,823 73.3242,827 69.3242,827 L31.3242,827 C27.3242,827 23.3242,823 23.3242,819 L23.3242,815 C23.3242,807 31.3242,799 39.3242,799 C43.3242,803 46.3242,803 50.3242,803" fill="#F1F1F1" style="stroke:#181818;stroke-width:0.5;"/><text fill="#000000" font-family="sans-serif" font-size="14" lengthAdjust="spacing" textLength="41.9998" x="6" y="840.4951">&#22996;&#25176;&#20154;</text><text fill="#000000" font-family="sans-serif" font-size="14" lengthAdjust="spacing" textLength="88.6484" x="6" y="856.792">Guild Master</text></g><!--entity Admin--><g class="entity" data-qualified-name="Admin" data-source-line="13" id="ent0004"><ellipse cx="50.3198" cy="22" fill="#F1F1F1" rx="16" ry="16" style="stroke:#181818;stroke-width:0.5;"/><path d="M50.3198,42 C54.3198,42 57.3198,42 61.3198,38 C69.3198,38 77.3198,46 77.3198,54 L77.3198,58 C77.3198,62 73.3198,66 69.3198,66 L31.3198,66 C27.3198,66 23.3198,62 23.3198,58 L23.3198,54 C23.3198,46 31.3198,38 39.3198,38 C43.3198,42 46.3198,42 50.3198,42" fill="#F1F1F1" style="stroke:#181818;stroke-width:0.5;"/><text fill="#000000" font-family="sans-serif" font-size="14" lengthAdjust="spacing" textLength="69.9997" x="15.32" y="79.4951">&#24179;&#21488;&#31649;&#29702;&#21592;</text><text fill="#000000" font-family="sans-serif" font-size="14" lengthAdjust="spacing" textLength="44.8643" x="15.32" y="95.792">Admin</text></g><!--entity GitHub--><g class="entity" data-qualified-name="GitHub" data-source-line="14" id="ent0005"><ellipse cx="50.32" cy="668.15" fill="#F1F1F1" rx="16" ry="16" style="stroke:#181818;stroke-width:0.5;"/><path d="M50.32,688.15 C54.32,688.15 57.32,688.15 61.32,684.15 C69.32,684.15 77.32,692.15 77.32,700.15 L77.32,704.15 C77.32,708.15 73.32,712.15 69.32,712.15 L31.32,712.15 C27.32,712.15 23.32,708.15 23.32,704.15 L23.32,700.15 C23.32,692.15 31.32,684.15 39.32,684.15 C43.32,688.15 46.32,688.15 50.32,688.15" fill="#F1F1F1" style="stroke:#181818;stroke-width:0.5;"/><text fill="#000000" font-family="sans-serif" font-size="14" lengthAdjust="spacing" textLength="48.5146" x="26.0627" y="725.6451">GitHub</text></g><!--entity Gitea--><g class="entity" data-qualified-name="Gitea" data-source-line="15" id="ent0006"><ellipse cx="50.32" cy="544.15" fill="#F1F1F1" rx="16" ry="16" style="stroke:#181818;stroke-width:0.5;"/><path d="M50.32,564.15 C54.32,564.15 57.32,564.15 61.32,560.15 C69.32,560.15 77.32,568.15 77.32,576.15 L77.32,580.15 C77.32,584.15 73.32,588.15 69.32,588.15 L31.32,588.15 C27.32,588.15 23.32,584.15 23.32,580.15 L23.32,576.15 C23.32,568.15 31.32,560.15 39.32,560.15 C43.32,564.15 46.32,564.15 50.32,564.15" fill="#F1F1F1" style="stroke:#181818;stroke-width:0.5;"/><text fill="#000000" font-family="sans-serif" font-size="14" lengthAdjust="spacing" textLength="37.4199" x="31.61" y="601.6451">Gitea</text></g><!--link GuildMaster to UC01--><g class="link" data-entity-1="ent0003" data-entity-2="ent0008" data-link-type="dependency" data-source-line="32" id="lnk20"><path d="M94.81,776.81 C106.86,767.91 120.31,759.03 133.65,752.3 C152.86,742.61 169.4744,736.6657 189.3344,731.0757" fill="none" id="GuildMaster-to-UC01" style="stroke:#475569;stroke-width:1;"/><polygon fill="#475569" points="195.11,729.45,185.3629,728.0381,190.297,730.8047,187.5304,735.7389,195.11,729.45" style="stroke:#475569;stroke-width:1;"/></g><!--link GuildMaster to UC02--><g class="link" data-entity-1="ent0003" data-entity-2="ent0009" data-link-type="dependency" data-source-line="33" id="lnk21"><path d="M82.02,766.18 C86.29,759.53 90.6,752.75 94.65,746.3 C112.36,718.09 107.25,702.62 133.65,682.3 C149.34,670.22 163.4639,663.9708 182.2639,658.9408" fill="none" id="GuildMaster-to-UC02" style="stroke:#475569;stroke-width:1;"/><polygon fill="#475569" points="188.06,657.39,178.332,655.8521,183.2299,658.6823,180.3997,663.5802,188.06,657.39" style="stroke:#475569;stroke-width:1;"/></g><!--link GuildMaster to UC03--><g class="link" data-entity-1="ent0003" data-entity-2="ent0010" data-link-type="dependency" data-source-line="34" id="lnk22"><path d="M95,822.4 C120.14,827.64 146.396,833.1067 174.726,839.0067" fill="none" id="GuildMaster-to-UC03" style="stroke:#475569;stroke-width:1;"/><polygon fill="#475569" points="180.6,840.23,172.6046,834.4791,175.705,839.2106,170.9735,842.311,180.6,840.23" style="stroke:#475569;stroke-width:1;"/></g><!--link GuildMaster to UC08--><g class="link" data-entity-1="ent0003" data-entity-2="ent0015" data-link-type="dependency" data-source-line="35" id="lnk23"><path d="M95,806.87 C124.79,802.48 158.4439,797.5136 189.9039,792.8836" fill="none" id="GuildMaster-to-UC08" style="stroke:#475569;stroke-width:1;"/><polygon fill="#475569" points="195.84,792.01,186.3535,789.3631,190.8933,792.738,187.5183,797.2778,195.84,792.01" style="stroke:#475569;stroke-width:1;"/></g><!--link GuildMaster to UC09--><g class="link" data-entity-1="ent0003" data-entity-2="ent0016" data-link-type="dependency" data-source-line="36" id="lnk24"><path d="M88.16,860.24 C101.02,873.12 116.56,885.43 133.65,892.3 C218.99,926.63 256.59,929.71 340.63,892.3 C431.86,851.69 494.2608,746.8664 515.6908,706.6064" fill="none" id="GuildMaster-to-UC09" style="stroke:#475569;stroke-width:1;"/><polygon fill="#475569" points="518.51,701.31,510.7502,707.3751,516.1606,705.7237,517.8121,711.1341,518.51,701.31" style="stroke:#475569;stroke-width:1;"/></g><!--link Adventurer to UC02--><g class="link" data-entity-1="ent0002" data-entity-2="ent0009" data-link-type="dependency" data-source-line="38" id="lnk25"><path d="M66.17,418.51 C87.85,486.92 126.4,606.28 133.65,613.3 C147.68,626.9 161.0529,633.6458 179.6829,638.7458" fill="none" id="Adventurer-to-UC02" style="stroke:#475569;stroke-width:1;"/><polygon fill="#475569" points="185.47,640.33,177.8455,634.0956,180.6474,639.0098,175.7332,641.8117,185.47,640.33" style="stroke:#475569;stroke-width:1;"/></g><!--link Adventurer to UC04--><g class="link" data-entity-1="ent0002" data-entity-2="ent0011" data-link-type="dependency" data-source-line="39" id="lnk26"><path d="M90.01,387.17 C103.7,392.56 119.27,398.44 133.65,403.3 C156.48,411.01 176.4584,416.9358 197.7584,422.8458" fill="none" id="Adventurer-to-UC04" style="stroke:#475569;stroke-width:1;"/><polygon fill="#475569" points="203.54,424.45,195.9371,418.1893,198.722,423.1132,193.7982,425.8981,203.54,424.45" style="stroke:#475569;stroke-width:1;"/></g><!--link Adventurer to UC05--><g class="link" data-entity-1="ent0002" data-entity-2="ent0012" data-link-type="dependency" data-source-line="40" id="lnk27"><path d="M83.09,324.41 C96.89,306.96 114.33,288.27 133.65,275.3 C148.78,265.15 161.1384,259.3686 178.4084,253.7086" fill="none" id="Adventurer-to-UC05" style="stroke:#475569;stroke-width:1;"/><polygon fill="#475569" points="184.11,251.84,174.3119,250.8419,179.3587,253.3972,176.8033,258.444,184.11,251.84" style="stroke:#475569;stroke-width:1;"/></g><!--link Adventurer to UC06--><g class="link" data-entity-1="ent0002" data-entity-2="ent0013" data-link-type="dependency" data-source-line="41" id="lnk28"><path d="M89.98,355.37 C103.67,349.97 119.25,344.1 133.65,339.3 C157.24,331.44 178.1926,325.4361 199.9026,319.6461" fill="none" id="Adventurer-to-UC06" style="stroke:#475569;stroke-width:1;"/><polygon fill="#475569" points="205.7,318.1,195.9732,316.5543,200.8689,319.3885,198.0347,324.2841,205.7,318.1" style="stroke:#475569;stroke-width:1;"/></g><!--link Adventurer to UC07--><g class="link" data-entity-1="ent0002" data-entity-2="ent0014" data-link-type="dependency" data-source-line="42" id="lnk29"><path d="M82.34,418.43 C96.2,436.46 113.88,455.89 133.65,469.3 C149.16,479.83 162.1095,485.7988 179.8195,491.5088" fill="none" id="Adventurer-to-UC07" style="stroke:#475569;stroke-width:1;"/><polygon fill="#475569" points="185.53,493.35,178.1917,486.7812,180.7712,491.8157,175.7368,494.3953,185.53,493.35" style="stroke:#475569;stroke-width:1;"/></g><!--link Adventurer to UC09--><g class="link" data-entity-1="ent0002" data-entity-2="ent0016" data-link-type="dependency" data-source-line="43" id="lnk30"><path d="M52,324.15 C55.67,267.02 71.48,172.88 133.65,128.3 C208.41,74.7 266.02,74.49 340.63,128.3 C435.43,196.69 508.0271,583.3213 522.5071,665.3613" fill="none" id="Adventurer-to-UC09" style="stroke:#475569;stroke-width:1;"/><polygon fill="#475569" points="523.55,671.27,525.9248,661.7117,522.6809,666.3461,518.0466,663.1022,523.55,671.27" style="stroke:#475569;stroke-width:1;"/></g><!--link Adventurer to UC11--><g class="link" data-entity-1="ent0002" data-entity-2="ent0018" data-link-type="dependency" data-source-line="44" id="lnk31"><path d="M89.74,371.3 C117.48,371.3 149.51,371.3 181.35,371.3" fill="none" id="Adventurer-to-UC11" style="stroke:#475569;stroke-width:1;"/><polygon fill="#475569" points="187.35,371.3,178.35,367.3,182.35,371.3,178.35,375.3,187.35,371.3" style="stroke:#475569;stroke-width:1;"/></g><!--link Admin to UC12--><g class="link" data-entity-1="ent0004" data-entity-2="ent0019" data-link-type="dependency" data-source-line="46" id="lnk32"><path d="M85.61,71.81 C123.16,93.18 177.5751,124.1426 213.2151,144.4226" fill="none" id="Admin-to-UC12" style="stroke:#475569;stroke-width:1;"/><polygon fill="#475569" points="218.43,147.39,212.586,139.4624,214.0843,144.9172,208.6295,146.4155,218.43,147.39" style="stroke:#475569;stroke-width:1;"/></g><!--link GitHub to UC01--><g class="link" data-entity-1="ent0005" data-entity-2="ent0008" data-link-type="dependency" data-source-line="48" id="lnk33"><path d="M78.28,694 C105.44,697.73 142.4158,702.7937 178.3158,707.7237" fill="none" id="GitHub-to-UC01" style="stroke:#475569;stroke-width:1;"/><polygon fill="#475569" points="184.26,708.54,175.8879,703.3528,179.3065,707.8598,174.7995,711.2784,184.26,708.54" style="stroke:#475569;stroke-width:1;"/></g><!--link Gitea to UC02--><g class="link" data-entity-1="ent0006" data-entity-2="ent0009" data-link-type="dependency" data-source-line="49" id="lnk34"><path d="M78.25,593.97 C91.21,605.71 107.61,618.47 124.65,626.3 C142.16,634.35 156.4064,638.4557 175.2964,641.6957" fill="none" id="Gitea-to-UC02" style="stroke:#475569;stroke-width:1;"/><polygon fill="#475569" points="181.21,642.71,173.0157,637.2461,176.282,641.8647,171.6633,645.131,181.21,642.71" style="stroke:#475569;stroke-width:1;"/></g><!--link Gitea to UC07--><g class="link" data-entity-1="ent0006" data-entity-2="ent0014" data-link-type="dependency" data-source-line="50" id="lnk35"><path d="M78.28,558.22 C108.18,549.26 151.4226,536.2927 189.1226,524.9927" fill="none" id="Gitea-to-UC07" style="stroke:#475569;stroke-width:1;"/><polygon fill="#475569" points="194.87,523.27,185.1005,522.0224,190.0805,524.7056,187.3974,529.6856,194.87,523.27" style="stroke:#475569;stroke-width:1;"/></g><!--link Gitea to UC10--><g class="link" data-entity-1="ent0006" data-entity-2="ent0017" data-link-type="dependency" data-source-line="51" id="lnk36"><path d="M78.28,568.08 C104.28,569.8 138.7431,572.0737 173.6431,574.3837" fill="none" id="Gitea-to-UC10" style="stroke:#475569;stroke-width:1;"/><polygon fill="#475569" points="179.63,574.78,170.9138,570.1943,174.6409,574.4498,170.3855,578.1769,179.63,574.78" style="stroke:#475569;stroke-width:1;"/></g><!--link UC08 to UC09--><g class="link" data-entity-1="ent0015" data-entity-2="ent0016" data-link-type="dependency" data-source-line="53" id="lnk37"><path d="M284.95,772.01 C301.77,766.06 322.25,758.82 340.63,752.3 C393.3,733.62 448.7079,713.8935 485.9579,700.6235" fill="none" id="UC08-to-UC09" style="stroke:#475569;stroke-width:1;stroke-dasharray:7,7;"/><polygon fill="#475569" points="491.61,698.61,481.7896,697.8622,486.8999,700.2879,484.4742,705.3983,491.61,698.61" style="stroke:#475569;stroke-width:1;"/><text fill="#000000" font-family="sans-serif" font-size="13" lengthAdjust="spacing" textLength="63.0068" x="371.63" y="716.3669">&#171;include&#187;</text></g><!--link UC10 to UC09--><g class="link" data-entity-1="ent0017" data-entity-2="ent0016" data-link-type="dependency" data-source-line="54" id="lnk38"><path d="M287.56,593.77 C303.86,600.07 323.19,607.55 340.63,614.3 C394.26,635.08 451.0067,657.1185 488.0467,671.4985" fill="none" id="UC10-to-UC09" style="stroke:#475569;stroke-width:1;stroke-dasharray:7,7;"/><polygon fill="#475569" points="493.64,673.67,486.6977,666.6839,488.9789,671.8604,483.8024,674.1416,493.64,673.67" style="stroke:#475569;stroke-width:1;"/><text fill="#000000" font-family="sans-serif" font-size="13" lengthAdjust="spacing" textLength="61.1851" x="372.63" y="622.3669">&#171;extend&#187;</text></g><?plantuml-src RPDBJzj04CVl_XIZzCmZBq8g58aYGNj0GgteYSisNeA5OoC_Igkg4cyIg4Xe05512v6IfgtQq0f1ZHELBvErdHDVeROt9hRmoJl_-StCpgo7n_CAA298N6v10PQJS5RXH86H5pbX2Kae3_82OiLbJiZ1FE9bxFCieUmYok4NobiUWnE8X1pl1r1M4INgHijO5lD-fohZB98nl6C0djYPSfAe2ko4o8iIF9eSdHoVd70yeiHYgQV6uubeCcchuv8aBlV4H2gP74apxnd6BGSHilMn--axQLxF2UFiQomegeIb220P-kOzspWmYiSTNPyJfbIEPs4QoKgFTWLgt-CtbwJqssnMpV8MsJzs2kGvePVRFddS5ASyLL_HBExHvy38qp5YcFknkJvQ4sYPktR1klXdVjibVmxDccuM2p3zSkQkNOouC_Fc5o4NRR9P7pBswlQdMxqnJvgTLeNe5RVExCHmr4yRLoMhKQ10Hzk3PxAiOe-C1VAUwHsz1m0fxHDjtLZxQLsLEgqMsQbwCV6GxDgU-Ukakr8Caea0ULOtJtSfO5ryDTOtxIZI_60KoiRvDjdUygAIWIYxoT9Hs3L60bYftD5h570IVZc58Q0Yp3ptGbA1RfjLurppXtZOg1-p_fvPsW-AcJlNniggXwK3sJOlhTK3knRGbW9tZGu_78JDT0zlpLQbNpWQU3TIst1-klOQqJIZS6JTVhOQ6y6qCMS9V7yj30nawFk7YB4mCHucZeQ9QORfRrC_vqCj4Q8bGxIH42qLegKVQlQW67VzF3jcZy5TEzy4d7NpzUutKm7JVXt6wHe61sb1U0nZOvoGvLKMPpACGmHz-8s21JQJ-Gy0?></g></svg>