<svg xmlns="http://www.w3.org/2000/svg" xmlns:xlink="http://www.w3.org/1999/xlink" contentStyleType="text/css" data-diagram-type="DESCRIPTION" height="1248px" preserveAspectRatio="none" style="width:643px;height:1248px;background:#FFFFFF;" version="1.1" viewBox="0 0 643 1248" width="643px" zoomAndPan="magnify"><?plantuml 1.2026.3beta6?><defs/><g><!--cluster Git Guild ??--><g class="cluster" data-qualified-name="Git Guild .." data-source-line="17" id="ent0007"><rect fill="none" height="919" rx="2.5" ry="2.5" style="stroke:#181818;stroke-width:1;" width="488.32" x="141.65" y="7"/><text fill="#000000" font-family="sans-serif" font-size="14" font-weight="700" lengthAdjust="spacing" textLength="101.8075" x="334.9063" y="21.9951">Git Guild &#24179;&#21488;</text></g><!--entity UC01--><g class="entity" data-qualified-name="Git Guild ...UC01" data-source-line="18" id="ent0008"><ellipse cx="539.803" cy="893.0046" fill="#F8FAFC" rx="74.173" ry="17.2346" style="stroke:#334155;stroke-width:0.5;"/><text fill="#000000" font-family="sans-serif" font-size="14" lengthAdjust="spacing" textLength="116.7163" x="481.4449" y="897.653">&#23548;&#20837;/&#25509;&#20837;&#39033;&#30446;&#20179;&#24211;</text></g><!--entity UC02--><g class="entity" data-qualified-name="Git Guild ...UC02" data-source-line="19" id="ent0009"><ellipse cx="249.1392" cy="479.0018" fill="#F8FAFC" rx="71.7092" ry="16.7418" style="stroke:#334155;stroke-width:0.5;"/><text fill="#000000" font-family="sans-serif" font-size="14" lengthAdjust="spacing" textLength="110.653" x="193.8126" y="483.6503">&#27983;&#35272;&#20179;&#24211;&#19982; Issue</text></g><!--entity UC03--><g class="entity" data-qualified-name="Git Guild ...UC03" data-source-line="20" id="ent0010"><ellipse cx="249.1388" cy="824.9978" fill="#F8FAFC" rx="91.4888" ry="20.6978" style="stroke:#334155;stroke-width:0.5;"/><text fill="#000000" font-family="sans-serif" font-size="14" lengthAdjust="spacing" textLength="157.103" x="170.5873" y="829.6462">&#22522;&#20110; Issue &#21457;&#24067;&#24748;&#36175;&#20219;&#21153;</text></g><!--entity UC04--><g class="entity" data-qualified-name="Git Guild ...UC04" data-source-line="21" id="ent0011"><ellipse cx="249.1352" cy="411.995" fill="#F8FAFC" rx="66.7252" ry="15.745" style="stroke:#334155;stroke-width:0.5;"/><text fill="#000000" font-family="sans-serif" font-size="14" lengthAdjust="spacing" textLength="97.9996" x="200.1354" y="416.6435">&#27983;&#35272;&#19982;&#31579;&#36873;&#20219;&#21153;</text></g><!--entity UC05--><g class="entity" data-qualified-name="Git Guild ...UC05" data-source-line="22" id="ent0012"><ellipse cx="249.1441" cy="551.0028" fill="#F8FAFC" rx="90.1141" ry="20.4228" style="stroke:#334155;stroke-width:0.5;"/><text fill="#000000" font-family="sans-serif" font-size="14" lengthAdjust="spacing" textLength="153.9993" x="172.1445" y="555.6513">&#26597;&#30475;&#20219;&#21153;&#35814;&#24773;&#19982;&#23436;&#25104;&#26631;&#20934;</text></g><!--entity UC06--><g class="entity" data-qualified-name="Git Guild ...UC06" data-source-line="23" id="ent0013"><ellipse cx="249.1442" cy="621.0028" fill="#F8FAFC" rx="61.5142" ry="14.7028" style="stroke:#334155;stroke-width:0.5;"/><text fill="#000000" font-family="sans-serif" font-size="14" lengthAdjust="spacing" textLength="83.9996" x="207.1444" y="625.6513">&#25509;&#21462;&#24748;&#36175;&#20219;&#21153;</text></g><!--entity UC07--><g class="entity" data-qualified-name="Git Guild ...UC07" data-source-line="24" id="ent0014"><ellipse cx="249.1382" cy="276.9956" fill="#F8FAFC" rx="87.5782" ry="19.9156" style="stroke:#334155;stroke-width:0.5;"/><text fill="#000000" font-family="sans-serif" font-size="14" lengthAdjust="spacing" textLength="148.2368" x="175.0197" y="281.6441">&#25552;&#20132;&#20219;&#21153;&#25104;&#26524; / &#25552;&#20132; PR</text></g><!--entity UC08--><g class="entity" data-qualified-name="Git Guild ...UC08" data-source-line="25" id="ent0015"><ellipse cx="249.1442" cy="895.0028" fill="#F8FAFC" rx="61.5142" ry="14.7028" style="stroke:#334155;stroke-width:0.5;"/><text fill="#000000" font-family="sans-serif" font-size="14" lengthAdjust="spacing" textLength="83.9996" x="207.1444" y="899.6513">&#23457;&#26680;&#20219;&#21153;&#25104;&#26524;</text></g><!--entity UC09--><g class="entity" data-qualified-name="Git Guild ...UC09" data-source-line="26" id="ent0016"><ellipse cx="539.8042" cy="806.0028" fill="#F8FAFC" rx="61.5142" ry="14.7028" style="stroke:#334155;stroke-width:0.5;"/><text fill="#000000" font-family="sans-serif" font-size="14" lengthAdjust="spacing" textLength="83.9996" x="497.8044" y="810.6513">&#36319;&#36394;&#20219;&#21153;&#29366;&#24577;</text></g><!--entity UC10--><g class="entity" data-qualified-name="Git Guild ...UC10" data-source-line="27" id="ent0017"><ellipse cx="249.1371" cy="204.9954" fill="#F8FAFC" rx="71.8771" ry="16.7754" style="stroke:#334155;stroke-width:0.5;"/><text fill="#000000" font-family="sans-serif" font-size="14" lengthAdjust="spacing" textLength="111.0699" x="193.6022" y="209.6439">&#20851;&#32852; PR &#23436;&#25104;&#20219;&#21153;</text></g><!--entity UC11--><g class="entity" data-qualified-name="Git Guild ...UC11" data-source-line="28" id="ent0018"><ellipse cx="249.1442" cy="685.0028" fill="#F8FAFC" rx="61.5142" ry="14.7028" style="stroke:#334155;stroke-width:0.5;"/><text fill="#000000" font-family="sans-serif" font-size="14" lengthAdjust="spacing" textLength="83.9996" x="207.1444" y="689.6513">&#26597;&#30475;&#25104;&#38271;&#32467;&#26524;</text></g><!--entity UC12--><g class="entity" data-qualified-name="Git Guild ...UC12" data-source-line="29" id="ent0019"><ellipse cx="249.1359" cy="134.9952" fill="#F8FAFC" rx="78.0259" ry="18.0052" style="stroke:#334155;stroke-width:0.5;"/><text fill="#000000" font-family="sans-serif" font-size="14" lengthAdjust="spacing" textLength="125.9995" x="186.1362" y="139.6436">&#22788;&#29702;&#24322;&#24120;&#25110;&#36829;&#35268;&#20219;&#21153;</text></g><!--entity UC13--><g class="entity" data-qualified-name="Git Guild ...UC13" data-source-line="30" id="ent0020"><ellipse cx="249.1442" cy="347.0028" fill="#F8FAFC" rx="61.5142" ry="14.7028" style="stroke:#334155;stroke-width:0.5;"/><text fill="#000000" font-family="sans-serif" font-size="14" lengthAdjust="spacing" textLength="83.9996" x="207.1444" y="351.6513">&#26597;&#30475;&#23457;&#26680;&#21453;&#39304;</text></g><!--entity UC14--><g class="entity" data-qualified-name="Git Guild ...UC14" data-source-line="31" id="ent0021"><ellipse cx="249.1424" cy="752.0005" fill="#F8FAFC" rx="72.2524" ry="16.8505" style="stroke:#334155;stroke-width:0.5;"/><text fill="#000000" font-family="sans-serif" font-size="14" lengthAdjust="spacing" textLength="111.9995" x="193.1427" y="756.6489">&#26597;&#30475;&#39033;&#30446;&#20219;&#21153;&#36827;&#24230;</text></g><!--entity UC15--><g class="entity" data-qualified-name="Git Guild ...UC15" data-source-line="32" id="ent0022"><ellipse cx="249.1399" cy="61.998" fill="#F8FAFC" rx="86.0399" ry="19.608" style="stroke:#334155;stroke-width:0.5;"/><text fill="#000000" font-family="sans-serif" font-size="14" lengthAdjust="spacing" textLength="144.7162" x="176.7818" y="66.6464">&#22788;&#29702;&#20179;&#24211;&#23548;&#20837;/&#21516;&#27493;&#24322;&#24120;</text></g><!--entity Adventurer--><g class="entity" data-qualified-name="Adventurer" data-source-line="11" id="ent0002"><ellipse cx="50.3213" cy="489.7" fill="#F1F1F1" rx="16" ry="16" style="stroke:#181818;stroke-width:0.5;"/><path d="M50.3213,509.7 C54.3213,509.7 57.3213,509.7 61.3213,505.7 C69.3213,505.7 77.3213,513.7 77.3213,521.7 L77.3213,525.7 C77.3213,529.7 73.3213,533.7 69.3213,533.7 L31.3213,533.7 C27.3213,533.7 23.3213,529.7 23.3213,525.7 L23.3213,521.7 C23.3213,513.7 31.3213,505.7 39.3213,505.7 C43.3213,509.7 46.3213,509.7 50.3213,509.7" fill="#F1F1F1" style="stroke:#181818;stroke-width:0.5;"/><text fill="#000000" font-family="sans-serif" font-size="14" lengthAdjust="spacing" textLength="41.9998" x="10.96" y="547.1951">&#20882;&#38505;&#23478;</text><text fill="#000000" font-family="sans-serif" font-size="14" lengthAdjust="spacing" textLength="78.7227" x="10.96" y="563.492">Adventurer</text></g><!--entity GuildMaster--><g class="entity" data-qualified-name="GuildMaster" data-source-line="12" id="ent0003"><ellipse cx="50.3242" cy="941.7" fill="#F1F1F1" rx="16" ry="16" style="stroke:#181818;stroke-width:0.5;"/><path d="M50.3242,961.7 C54.3242,961.7 57.3242,961.7 61.3242,957.7 C69.3242,957.7 77.3242,965.7 77.3242,973.7 L77.3242,977.7 C77.3242,981.7 73.3242,985.7 69.3242,985.7 L31.3242,985.7 C27.3242,985.7 23.3242,981.7 23.3242,977.7 L23.3242,973.7 C23.3242,965.7 31.3242,957.7 39.3242,957.7 C43.3242,961.7 46.3242,961.7 50.3242,961.7" fill="#F1F1F1" style="stroke:#181818;stroke-width:0.5;"/><text fill="#000000" font-family="sans-serif" font-size="14" lengthAdjust="spacing" textLength="41.9998" x="6" y="999.1951">&#22996;&#25176;&#20154;</text><text fill="#000000" font-family="sans-serif" font-size="14" lengthAdjust="spacing" textLength="88.6484" x="6" y="1015.492">Guild Master</text></g><!--entity Admin--><g class="entity" data-qualified-name="Admin" data-source-line="13" id="ent0004"><ellipse cx="50.3198" cy="68.7" fill="#F1F1F1" rx="16" ry="16" style="stroke:#181818;stroke-width:0.5;"/><path d="M50.3198,88.7 C54.3198,88.7 57.3198,88.7 61.3198,84.7 C69.3198,84.7 77.3198,92.7 77.3198,100.7 L77.3198,104.7 C77.3198,108.7 73.3198,112.7 69.3198,112.7 L31.3198,112.7 C27.3198,112.7 23.3198,108.7 23.3198,104.7 L23.3198,100.7 C23.3198,92.7 31.3198,84.7 39.3198,84.7 C43.3198,88.7 46.3198,88.7 50.3198,88.7" fill="#F1F1F1" style="stroke:#181818;stroke-width:0.5;"/><text fill="#000000" font-family="sans-serif" font-size="14" lengthAdjust="spacing" textLength="69.9997" x="15.32" y="126.1951">&#24179;&#21488;&#31649;&#29702;&#21592;</text><text fill="#000000" font-family="sans-serif" font-size="14" lengthAdjust="spacing" textLength="44.8643" x="15.32" y="142.492">Admin</text></g><!--entity GitHub--><g class="entity" data-qualified-name="GitHub" data-source-line="14" id="ent0005"><ellipse cx="249.14" cy="1174.85" fill="#F1F1F1" rx="16" ry="16" style="stroke:#181818;stroke-width:0.5;"/><path d="M249.14,1194.85 C253.14,1194.85 256.14,1194.85 260.14,1190.85 C268.14,1190.85 276.14,1198.85 276.14,1206.85 L276.14,1210.85 C276.14,1214.85 272.14,1218.85 268.14,1218.85 L230.14,1218.85 C226.14,1218.85 222.14,1214.85 222.14,1210.85 L222.14,1206.85 C222.14,1198.85 230.14,1190.85 238.14,1190.85 C242.14,1194.85 245.14,1194.85 249.14,1194.85" fill="#F1F1F1" style="stroke:#181818;stroke-width:0.5;"/><text fill="#000000" font-family="sans-serif" font-size="14" lengthAdjust="spacing" textLength="48.5146" x="224.8827" y="1232.3451">GitHub</text></g><!--entity Gitea--><g class="entity" data-qualified-name="Gitea" data-source-line="15" id="ent0006"><ellipse cx="50.32" cy="251.85" fill="#F1F1F1" rx="16" ry="16" style="stroke:#181818;stroke-width:0.5;"/><path d="M50.32,271.85 C54.32,271.85 57.32,271.85 61.32,267.85 C69.32,267.85 77.32,275.85 77.32,283.85 L77.32,287.85 C77.32,291.85 73.32,295.85 69.32,295.85 L31.32,295.85 C27.32,295.85 23.32,291.85 23.32,287.85 L23.32,283.85 C23.32,275.85 31.32,267.85 39.32,267.85 C43.32,271.85 46.32,271.85 50.32,271.85" fill="#F1F1F1" style="stroke:#181818;stroke-width:0.5;"/><text fill="#000000" font-family="sans-serif" font-size="14" lengthAdjust="spacing" textLength="37.4199" x="31.61" y="309.3451">Gitea</text></g><!--link GuildMaster to UC01--><g class="link" data-entity-1="ent0003" data-entity-2="ent0008" data-link-type="dependency" data-source-line="35" id="lnk23"><path d="M78.37,1018.95 C90.31,1035.06 105.92,1051.23 124.65,1060 C249.81,1118.63 314.91,1127.32 435.63,1060 C494.11,1027.39 521.9066,952.2061 532.4566,916.3461" fill="none" id="GuildMaster-to-UC01" style="stroke:#475569;stroke-width:1;"/><polygon fill="#475569" points="534.15,910.59,527.7725,918.0951,532.7388,915.3867,535.4472,920.3531,534.15,910.59" style="stroke:#475569;stroke-width:1;"/></g><!--link GuildMaster to UC02--><g class="link" data-entity-1="ent0003" data-entity-2="ent0009" data-link-type="dependency" data-source-line="36" id="lnk24"><path d="M53.65,924.77 C59.74,820.17 79.6,573.42 133.65,513 C146.3,498.86 158.7385,492.0579 176.9485,487.1279" fill="none" id="GuildMaster-to-UC02" style="stroke:#475569;stroke-width:1;"/><polygon fill="#475569" points="182.74,485.56,173.0074,484.0509,177.9137,486.8666,175.098,491.7729,182.74,485.56" style="stroke:#475569;stroke-width:1;"/></g><!--link GuildMaster to UC03--><g class="link" data-entity-1="ent0003" data-entity-2="ent0010" data-link-type="dependency" data-source-line="37" id="lnk25"><path d="M94.83,956.14 C106.62,949.78 118.17,941.23 125.65,930 C142.27,905.04 114.68,886.23 133.65,863 C143.71,850.67 152.2765,844.4287 167.2465,838.7787" fill="none" id="GuildMaster-to-UC03" style="stroke:#475569;stroke-width:1;"/><polygon fill="#475569" points="172.86,836.66,163.0273,836.0957,168.1821,838.4255,165.8522,843.5803,172.86,836.66" style="stroke:#475569;stroke-width:1;"/></g><!--link GuildMaster to UC08--><g class="link" data-entity-1="ent0003" data-entity-2="ent0015" data-link-type="dependency" data-source-line="38" id="lnk26"><path d="M95.14,975.32 C105.31,975.02 115.99,973.83 125.65,971 C167.69,958.71 204.866,931.5335 227.106,913.1435" fill="none" id="GuildMaster-to-UC08" style="stroke:#475569;stroke-width:1;"/><polygon fill="#475569" points="231.73,909.32,222.2451,911.9726,227.8767,912.5062,227.3431,918.1379,231.73,909.32" style="stroke:#475569;stroke-width:1;"/></g><!--link GuildMaster to UC09--><g class="link" data-entity-1="ent0003" data-entity-2="ent0016" data-link-type="dependency" data-source-line="39" id="lnk27"><path d="M95,990.58 C172.77,1020.41 336.39,1068.08 435.63,989 C482.34,951.78 432.44,907.66 465.63,858 C476.8,841.29 490.0727,831.1731 505.6727,822.3131" fill="none" id="GuildMaster-to-UC09" style="stroke:#475569;stroke-width:1;"/><polygon fill="#475569" points="510.89,819.35,501.0887,820.3165,506.5423,821.8193,505.0395,827.2729,510.89,819.35" style="stroke:#475569;stroke-width:1;"/></g><!--link GuildMaster to UC14--><g class="link" data-entity-1="ent0003" data-entity-2="ent0021" data-link-type="dependency" data-source-line="40" id="lnk28"><path d="M60.7,924.79 C71.41,882.93 92.97,822.99 133.65,787 C148.36,773.99 162.0248,767.401 180.7148,762.261" fill="none" id="GuildMaster-to-UC14" style="stroke:#475569;stroke-width:1;"/><polygon fill="#475569" points="186.5,760.67,176.7615,759.1997,181.679,761.9958,178.8829,766.9133,186.5,760.67" style="stroke:#475569;stroke-width:1;"/></g><!--link Adventurer to UC02--><g class="link" data-entity-1="ent0002" data-entity-2="ent0009" data-link-type="dependency" data-source-line="42" id="lnk29"><path d="M90,509.38 C101.14,506.49 113.34,503.47 124.65,501 C145.6,496.43 162.8095,493.1522 183.3095,489.5722" fill="none" id="Adventurer-to-UC02" style="stroke:#475569;stroke-width:1;"/><polygon fill="#475569" points="189.22,488.54,179.6661,486.1479,184.2945,489.4002,181.0423,494.0286,189.22,488.54" style="stroke:#475569;stroke-width:1;"/></g><!--link Adventurer to UC04--><g class="link" data-entity-1="ent0002" data-entity-2="ent0011" data-link-type="dependency" data-source-line="43" id="lnk30"><path d="M89.86,478.18 C102.8,466.07 117.95,453.78 133.65,445 C152.7,434.35 169.6729,428.3501 189.8929,423.2401" fill="none" id="Adventurer-to-UC04" style="stroke:#475569;stroke-width:1;"/><polygon fill="#475569" points="195.71,421.77,186.0043,420.0971,190.8624,422.9951,187.9644,427.8532,195.71,421.77" style="stroke:#475569;stroke-width:1;"/></g><!--link Adventurer to UC05--><g class="link" data-entity-1="ent0002" data-entity-2="ent0012" data-link-type="dependency" data-source-line="44" id="lnk31"><path d="M89.74,526.05 C113.79,529.84 139.643,533.9171 168.423,538.4471" fill="none" id="Adventurer-to-UC05" style="stroke:#475569;stroke-width:1;"/><polygon fill="#475569" points="174.35,539.38,166.0814,534.0293,169.4108,538.6026,164.8375,541.932,174.35,539.38" style="stroke:#475569;stroke-width:1;"/></g><!--link Adventurer to UC06--><g class="link" data-entity-1="ent0002" data-entity-2="ent0013" data-link-type="dependency" data-source-line="45" id="lnk32"><path d="M89.87,558.11 C102.92,569.35 118.14,580.83 133.65,589 C153.91,599.68 172.2936,605.7285 193.2236,610.7185" fill="none" id="Adventurer-to-UC06" style="stroke:#475569;stroke-width:1;"/><polygon fill="#475569" points="199.06,612.11,191.233,606.1318,194.1963,610.9504,189.3777,613.9137,199.06,612.11" style="stroke:#475569;stroke-width:1;"/></g><!--link Adventurer to UC07--><g class="link" data-entity-1="ent0002" data-entity-2="ent0014" data-link-type="dependency" data-source-line="46" id="lnk33"><path d="M58.51,472.87 C67.96,426.61 88.95,357.04 133.65,315 C146.31,303.09 157.1204,296.8445 173.6204,291.2245" fill="none" id="Adventurer-to-UC07" style="stroke:#475569;stroke-width:1;"/><polygon fill="#475569" points="179.3,289.29,169.491,288.4054,174.567,290.9021,172.0703,295.9781,179.3,289.29" style="stroke:#475569;stroke-width:1;"/></g><!--link Adventurer to UC09--><g class="link" data-entity-1="ent0002" data-entity-2="ent0016" data-link-type="dependency" data-source-line="47" id="lnk34"><path d="M53.62,566.99 C59.47,664.16 78.55,881.93 133.65,927 C204.85,985.24 252.07,951.9 340.63,927 C379.04,916.2 471.6646,853.1607 513.8946,823.6007" fill="none" id="Adventurer-to-UC09" style="stroke:#475569;stroke-width:1;"/><polygon fill="#475569" points="518.81,820.16,509.143,822.0441,514.7138,823.0272,513.7306,828.598,518.81,820.16" style="stroke:#475569;stroke-width:1;"/></g><!--link Adventurer to UC11--><g class="link" data-entity-1="ent0002" data-entity-2="ent0018" data-link-type="dependency" data-source-line="48" id="lnk35"><path d="M69.93,567.26 C83.53,595.99 104.67,631.22 133.65,653 C150.97,666.02 167.4868,672.4211 187.8568,677.0111" fill="none" id="Adventurer-to-UC11" style="stroke:#475569;stroke-width:1;"/><polygon fill="#475569" points="193.71,678.33,185.8094,672.4495,188.8323,677.2309,184.0509,680.2538,193.71,678.33" style="stroke:#475569;stroke-width:1;"/></g><!--link Adventurer to UC13--><g class="link" data-entity-1="ent0002" data-entity-2="ent0020" data-link-type="dependency" data-source-line="49" id="lnk36"><path d="M67.94,472.98 C81.18,442.01 102.68,402.91 133.65,379 C150.72,365.82 167.0757,359.3844 187.3857,354.8244" fill="none" id="Adventurer-to-UC13" style="stroke:#475569;stroke-width:1;"/><polygon fill="#475569" points="193.24,353.51,183.5823,351.5788,188.3615,354.6053,185.3349,359.3844,193.24,353.51" style="stroke:#475569;stroke-width:1;"/></g><!--link Admin to UC12--><g class="link" data-entity-1="ent0004" data-entity-2="ent0019" data-link-type="dependency" data-source-line="51" id="lnk37"><path d="M85.61,105.27 C113.47,110.37 147.5779,116.6105 180.9279,122.7105" fill="none" id="Admin-to-UC12" style="stroke:#475569;stroke-width:1;"/><polygon fill="#475569" points="186.83,123.79,178.6966,118.236,181.9116,122.8904,177.2572,126.1054,186.83,123.79" style="stroke:#475569;stroke-width:1;"/></g><!--link Admin to UC15--><g class="link" data-entity-1="ent0004" data-entity-2="ent0022" data-link-type="dependency" data-source-line="52" id="lnk38"><path d="M85.61,92.56 C112.04,87.59 143.5033,81.6684 175.7433,75.6084" fill="none" id="Admin-to-UC15" style="stroke:#475569;stroke-width:1;"/><polygon fill="#475569" points="181.64,74.5,172.056,72.2314,176.7261,75.4237,173.5338,80.0937,181.64,74.5" style="stroke:#475569;stroke-width:1;"/></g><!--link GitHub to UC01--><g class="link" data-entity-1="ent0005" data-entity-2="ent0008" data-link-type="dependency" data-source-line="54" id="lnk39"><path d="M276.93,1194.21 C316.42,1188.75 390.43,1173.25 435.63,1131 C502.73,1068.26 527.3634,960.2898 535.0234,916.6198" fill="none" id="GitHub-to-UC01" style="stroke:#475569;stroke-width:1;"/><polygon fill="#475569" points="536.06,910.71,530.5652,918.8836,535.1962,915.6348,538.4449,920.2657,536.06,910.71" style="stroke:#475569;stroke-width:1;"/></g><!--link Gitea to UC02--><g class="link" data-entity-1="ent0006" data-entity-2="ent0009" data-link-type="dependency" data-source-line="55" id="lnk40"><path d="M60.24,312.96 C71.11,351.84 93.26,410.61 133.65,445 C148.49,457.64 162.0753,464.0237 180.6553,469.0137" fill="none" id="Gitea-to-UC02" style="stroke:#475569;stroke-width:1;"/><polygon fill="#475569" points="186.45,470.57,178.7955,464.3725,181.6211,469.2731,176.7205,472.0987,186.45,470.57" style="stroke:#475569;stroke-width:1;"/></g><!--link Gitea to UC07--><g class="link" data-entity-1="ent0006" data-entity-2="ent0014" data-link-type="dependency" data-source-line="56" id="lnk41"><path d="M78.28,274.41 C99.86,274.74 125.3907,275.1282 155.4407,275.5882" fill="none" id="Gitea-to-UC07" style="stroke:#475569;stroke-width:1;"/><polygon fill="#475569" points="161.44,275.68,152.5023,271.5427,156.4406,275.6035,152.3798,279.5418,161.44,275.68" style="stroke:#475569;stroke-width:1;"/></g><!--link Gitea to UC10--><g class="link" data-entity-1="ent0006" data-entity-2="ent0017" data-link-type="dependency" data-source-line="57" id="lnk42"><path d="M78.14,262.17 C94.11,255.31 114.87,246.73 133.65,240 C155.86,232.04 175.1262,225.9612 196.0962,219.7612" fill="none" id="Gitea-to-UC10" style="stroke:#475569;stroke-width:1;"/><polygon fill="#475569" points="201.85,218.06,192.0852,216.7759,197.0552,219.4776,194.3534,224.4476,201.85,218.06" style="stroke:#475569;stroke-width:1;"/></g><!--link UC08 to UC09--><g class="link" data-entity-1="ent0015" data-entity-2="ent0016" data-link-type="dependency" data-source-line="59" id="lnk43"><path d="M288.17,883.27 C343.44,866.23 439.6365,836.5784 494.9465,819.5184" fill="none" id="UC08-to-UC09" style="stroke:#475569;stroke-width:1;stroke-dasharray:7,7;"/><polygon fill="#475569" points="500.68,817.75,490.9008,816.5804,495.9021,819.2237,493.2588,824.225,500.68,817.75" style="stroke:#475569;stroke-width:1;"/><text fill="#000000" font-family="sans-serif" font-size="13" lengthAdjust="spacing" textLength="63.0068" x="371.63" y="836.0669">&#171;include&#187;</text></g><!--link UC10 to UC09--><g class="link" data-entity-1="ent0017" data-entity-2="ent0016" data-link-type="dependency" data-source-line="60" id="lnk44"><path d="M294.62,218.25 C309.83,223.79 326.56,231.05 340.63,240 C389.96,271.38 407.06,279.99 435.63,331 C526.73,493.73 537.3109,723.4912 538.5309,784.9212" fill="none" id="UC10-to-UC09" style="stroke:#475569;stroke-width:1;stroke-dasharray:7,7;"/><polygon fill="#475569" points="538.65,790.92,542.4705,781.8424,538.5507,785.921,534.4721,782.0012,538.65,790.92" style="stroke:#475569;stroke-width:1;"/><text fill="#000000" font-family="sans-serif" font-size="13" lengthAdjust="spacing" textLength="61.1851" x="372.63" y="256.0669">&#171;extend&#187;</text></g><!--link UC13 to UC09--><g class="link" data-entity-1="ent0020" data-entity-2="ent0016" data-link-type="dependency" data-source-line="61" id="lnk45"><path d="M298.13,356.26 C313.11,361.05 328.79,368.24 340.63,379 C408.49,440.73 507.7521,716.9154 531.6421,785.3354" fill="none" id="UC13-to-UC09" style="stroke:#475569;stroke-width:1;stroke-dasharray:7,7;"/><polygon fill="#475569" points="533.62,791,534.4296,781.1845,531.9718,786.2795,526.8767,783.8217,533.62,791" style="stroke:#475569;stroke-width:1;"/><text fill="#000000" font-family="sans-serif" font-size="13" lengthAdjust="spacing" textLength="63.0068" x="371.63" y="420.0669">&#171;include&#187;</text></g><!--link UC14 to UC09--><g class="link" data-entity-1="ent0021" data-entity-2="ent0016" data-link-type="dependency" data-source-line="62" id="lnk46"><path d="M306.48,762.54 C359.97,772.55 433.6323,786.3269 484.3723,795.8169" fill="none" id="UC14-to-UC09" style="stroke:#475569;stroke-width:1;stroke-dasharray:7,7;"/><polygon fill="#475569" points="490.27,796.92,482.1588,791.3336,485.3552,796.0008,480.688,799.1972,490.27,796.92" style="stroke:#475569;stroke-width:1;"/><text fill="#000000" font-family="sans-serif" font-size="13" lengthAdjust="spacing" textLength="63.0068" x="371.63" y="772.0669">&#171;include&#187;</text></g><!--link UC15 to UC01--><g class="link" data-entity-1="ent0022" data-entity-2="ent0008" data-link-type="dependency" data-source-line="63" id="lnk47"><path d="M310.33,76.13 C321.97,81.49 332.93,88.86 340.63,99 C410.17,190.59 310.39,258.04 370.63,356 C388.77,385.51 418.2,369.07 435.63,399 C484.83,483.5 418.98,752.06 465.63,838 C474.8,854.9 486.5212,864.9963 501.7412,874.2363" fill="none" id="UC15-to-UC01" style="stroke:#475569;stroke-width:1;stroke-dasharray:7,7;"/><polygon fill="#475569" points="506.87,877.35,501.2525,869.2602,502.596,874.7553,497.101,876.0987,506.87,877.35" style="stroke:#475569;stroke-width:1;"/><text fill="#000000" font-family="sans-serif" font-size="13" lengthAdjust="spacing" textLength="61.1851" x="372.63" y="352.0669">&#171;extend&#187;</text></g><?plantuml-src VPHRIzn05CVVyoc6xRENtMnSjuXW1MqV2gN5Dr-cct4DnaHogIsbuDtLMhDMAnPjTS5LMkfQ46tC2dwPdIJxBPfaTjmC2Jubvtz-vp9dBZAQCe2X0aqgJnj0b3HKCYHLuVGPIPc36fm5-ZGKrNb9AOCfAEievfc3fHbOHc-C3p82OI1Kod8SW2L3rOWRpYDTdOqxJHsLe8x0Hmw0Pq6cigQQYZYgoge6demDZesCZOOULHEHrb5vFfyLX40TqJHrlYFc2u8mKEG-SLnK3cJmsjVszr-uSJEfZ8Zla6AO6j8o0EgWQpwmvtlkna7BSIQLSLEIHV0IwaQ7ZWHYF-2tLzZwwpLgNdKDxno41MObfPCx-AFSk6GyDz-IBD5lp84WrH7ak8UnHJvI4v0ocMWqT4mPV7c7L-jzxdOz-BHhjzvXezNSnSvkb6vYj3yRfzrhop-l4A1bRuCNkcuYIkQOlCTEo-a005ixs5vsb_xurrQhsSIRDHh3fsItjxsBm_R21alc6VAuxXrz9e1_UUOkhmPHkB7bLghkoJfUNwDH0XCLBDBQJsjZWC6iQiiv9K2OyESHw0D41AzUqv02izf6pJsnuo4K6unZ_hzZt_vDC6_pnbrOf5YHoRPwvI_k1RK0MHBJQxO_EOY0QN-xzvgxtS9PPj_mwKfujkwMi6sxbNt__eT_liAcpINJabLXwqlxh48nFedHKnDjnlqXTiued4_sGCvEvzJXwfPxKITjqHWXl7EnIm9wUeR9EKmHSsaYdoOEfed5535ecklUw6wXf9PFqOGKRI15AwHenQGMx69IuyC6WsU1sZdM58BnHQz3R7BXgn2RMTmiC6PmkhXmMg2tb_G4deAX8KafoQQ8XeUva61zwBs1596u-4V2ye_u1EhBCYd_0m00?></g></svg>